# xmcd
#
# Track frame offsets:
#	150
#	12673
#	25506
#	37232
#	48758
#	60021
#	67937
#	79519
#	94658
#	104832
#	117258
#	131388
#	140058
#	150415
#
# Disc length: 2492 seconds
#
# Revision: 0
# Processed by: cddbd v1.4PL0 Copyright (c) Steve Scherf et al.
# Submitted via: audiograbber 1.80
#
DISCID=ac09ba0e
DTITLE=Frank Sinatra - Swinging on a star
DYEAR=1900
DGENRE=
TTITLE0=No Love, no nothin'
TTITLE1=My heart tells me
TTITLE2=Shoo, shoo baby
TTITLE3=Oh, what a beautiful morning
TTITLE4=Is you is or is you ain't
TTITLE5=The day after forever
TTITLE6=Swinging on astar
TTITLE7=Love come back to me
TTITLE8=I should care
TTITLE9=What makes the sunset
TTITLE10=If I loved you
TTITLE11=Time after time
TTITLE12=The girl that I marry
TTITLE13=Soliloquy
EXTD=
EXTT0=
EXTT1=
EXTT2=
EXTT3=
EXTT4=
EXTT5=
EXTT6=
EXTT7=
EXTT8=
EXTT9=
EXTT10=
EXTT11=
EXTT12=
EXTT13=
PLAYORDER=
